{
 "cells": [
  {
   "cell_type": "code",
   "execution_count": 2,
   "metadata": {},
   "outputs": [],
   "source": [
    "from moviepy.video.io.VideoFileClip import VideoFileClip"
   ]
  },
  {
   "cell_type": "code",
   "execution_count": 3,
   "metadata": {},
   "outputs": [
    {
     "name": "stderr",
     "output_type": "stream",
     "text": [
      "c:\\Users\\super\\AppData\\Local\\Programs\\Python\\Python312\\Lib\\site-packages\\moviepy\\video\\io\\ffmpeg_reader.py:496: UserWarning: Subtitle stream parsing is not supported by moviepy and will be ignored\n",
      "ffmpeg output:\n",
      "\n",
      "Input #0, matroska,webm, from 'D:/MOVIES/HP1.mkv':\n",
      "  Metadata:\n",
      "    title           : Harry Potter and the Sorcerers Stone 2001 1080p BRRIp x264 Dual Audio [Hindi - English 2.0] ESub\n",
      "    encoder         : libebml v1.3.0 + libmatroska v1.4.1\n",
      "    creation_time   : 2017-12-30T19:56:52.000000Z\n",
      "  Duration: 02:32:21.70, start: 0.000000, bitrate: 1246 kb/s\n",
      "    Stream #0:0: Video: h264 (High), yuv420p(progressive), 1920x796 [SAR 1:1 DAR 480:199], 23.98 fps, 23.98 tbr, 1k tbn, 47.95 tbc (default)\n",
      "    Metadata:\n",
      "      title           : Harry Potter and the Sorcerers Stone 2001 1080p BRRIp x264 Dual Audio [Hindi - English 2.0] ESub\n",
      "      BPS             : 999124\n",
      "      BPS-eng         : 999124\n",
      "      DURATION        : 02:32:21.549000000\n",
      "      DURATION-eng    : 02:32:21.549000000\n",
      "      NUMBER_OF_FRAMES: 219178\n",
      "      NUMBER_OF_FRAMES-eng: 219178\n",
      "      NUMBER_OF_BYTES : 1141693199\n",
      "      NUMBER_OF_BYTES-eng: 1141693199\n",
      "      _STATISTICS_WRITING_APP: mkvmerge v7.4.0 ('Circles') 64bit built on Dec 12 2014 12:19:56\n",
      "      _STATISTICS_WRITING_APP-eng: mkvmerge v7.4.0 ('Circles') 64bit built on Dec 12 2014 12:19:56\n",
      "      _STATISTICS_WRITING_DATE_UTC: 2017-12-30 19:56:52\n",
      "      _STATISTICS_WRITING_DATE_UTC-eng: 2017-12-30 19:56:52\n",
      "      _STATISTICS_TAGS: BPS DURATION NUMBER_OF_FRAMES NUMBER_OF_BYTES\n",
      "      _STATISTICS_TAGS-eng: BPS DURATION NUMBER_OF_FRAMES NUMBER_OF_BYTES\n",
      "    Stream #0:1(hin): Audio: ac3, 48000 Hz, stereo, fltp, 160 kb/s (default)\n",
      "    Metadata:\n",
      "      BPS             : 160000\n",
      "      BPS-eng         : 160000\n",
      "      DURATION        : 02:26:00.032000000\n",
      "      DURATION-eng    : 02:26:00.032000000\n",
      "      NUMBER_OF_FRAMES: 273751\n",
      "      NUMBER_OF_FRAMES-eng: 273751\n",
      "      NUMBER_OF_BYTES : 175200640\n",
      "      NUMBER_OF_BYTES-eng: 175200640\n",
      "      _STATISTICS_WRITING_APP: mkvmerge v7.4.0 ('Circles') 64bit built on Dec 12 2014 12:19:56\n",
      "      _STATISTICS_WRITING_APP-eng: mkvmerge v7.4.0 ('Circles') 64bit built on Dec 12 2014 12:19:56\n",
      "      _STATISTICS_WRITING_DATE_UTC: 2017-12-30 19:56:52\n",
      "      _STATISTICS_WRITING_DATE_UTC-eng: 2017-12-30 19:56:52\n",
      "      _STATISTICS_TAGS: BPS DURATION NUMBER_OF_FRAMES NUMBER_OF_BYTES\n",
      "      _STATISTICS_TAGS-eng: BPS DURATION NUMBER_OF_FRAMES NUMBER_OF_BYTES\n",
      "    Stream #0:2(eng): Audio: aac (LC), 48000 Hz, stereo, fltp\n",
      "    Metadata:\n",
      "      BPS             : 92000\n",
      "      BPS-eng         : 92000\n",
      "      DURATION        : 02:32:21.696000000\n",
      "      DURATION-eng    : 02:32:21.696000000\n",
      "      NUMBER_OF_FRAMES: 428517\n",
      "      NUMBER_OF_FRAMES-eng: 428517\n",
      "      NUMBER_OF_BYTES : 105129504\n",
      "      NUMBER_OF_BYTES-eng: 105129504\n",
      "      _STATISTICS_WRITING_APP: mkvmerge v7.4.0 ('Circles') 64bit built on Dec 12 2014 12:19:56\n",
      "      _STATISTICS_WRITING_APP-eng: mkvmerge v7.4.0 ('Circles') 64bit built on Dec 12 2014 12:19:56\n",
      "      _STATISTICS_WRITING_DATE_UTC: 2017-12-30 19:56:52\n",
      "      _STATISTICS_WRITING_DATE_UTC-eng: 2017-12-30 19:56:52\n",
      "      _STATISTICS_TAGS: BPS DURATION NUMBER_OF_FRAMES NUMBER_OF_BYTES\n",
      "      _STATISTICS_TAGS-eng: BPS DURATION NUMBER_OF_FRAMES NUMBER_OF_BYTES\n",
      "    Stream #0:3: Subtitle: subrip (default)\n",
      "    Metadata:\n",
      "      BPS             : 42\n",
      "      BPS-eng         : 42\n",
      "      DURATION        : 02:23:25.012000000\n",
      "      DURATION-eng    : 02:23:25.012000000\n",
      "      NUMBER_OF_FRAMES: 1227\n",
      "      NUMBER_OF_FRAMES-eng: 1227\n",
      "      NUMBER_OF_BYTES : 46199\n",
      "      NUMBER_OF_BYTES-eng: 46199\n",
      "      _STATISTICS_WRITING_APP: mkvmerge v7.4.0 ('Circles') 64bit built on Dec 12 2014 12:19:56\n",
      "      _STATISTICS_WRITING_APP-eng: mkvmerge v7.4.0 ('Circles') 64bit built on Dec 12 2014 12:19:56\n",
      "      _STATISTICS_WRITING_DATE_UTC: 2017-12-30 19:56:52\n",
      "      _STATISTICS_WRITING_DATE_UTC-eng: 2017-12-30 19:56:52\n",
      "      _STATISTICS_TAGS: BPS DURATION NUMBER_OF_FRAMES NUMBER_OF_BYTES\n",
      "      _STATISTICS_TAGS-eng: BPS DURATION NUMBER_OF_FRAMES NUMBER_OF_BYTES\n",
      "At least one output file must be specified\n",
      "\n",
      "  warnings.warn(\n"
     ]
    },
    {
     "name": "stdout",
     "output_type": "stream",
     "text": [
      "Creating D:/REEL/HP1\\part_1.mp4 from 0 to 90 seconds...\n",
      "An error occurred: 'VideoFileClip' object has no attribute 'subclip'\n"
     ]
    }
   ],
   "source": [
    "\n",
    "import os\n",
    "\n",
    "def split_video(input_file, output_folder, clip_duration=90):\n",
    "    \"\"\"\n",
    "    Splits a video into parts of specified duration.\n",
    "    \n",
    "    Args:\n",
    "        input_file (str): Path to the input video file.\n",
    "        output_folder (str): Path to the folder where output parts will be saved.\n",
    "        clip_duration (int): Duration of each part in seconds (default: 90 seconds).\n",
    "    \"\"\"\n",
    "    if not os.path.exists(output_folder):\n",
    "        os.makedirs(output_folder)\n",
    "\n",
    "    try:\n",
    "        # Load the video\n",
    "        video = VideoFileClip(input_file)\n",
    "        total_duration = int(video.duration)  # Total duration of the video in seconds\n",
    "        \n",
    "        # Split video into parts\n",
    "        for start_time in range(0, total_duration, clip_duration):\n",
    "            end_time = min(start_time + clip_duration, total_duration)\n",
    "            part_filename = os.path.join(output_folder, f\"part_{start_time // clip_duration + 1}.mp4\")\n",
    "            print(f\"Creating {part_filename} from {start_time} to {end_time} seconds...\")\n",
    "            \n",
    "            # Extract the subclip and write to file\n",
    "            video_clip = video.subclip(start_time, end_time)  # Use subclip here\n",
    "            video_clip.write_videofile(part_filename, codec=\"libx264\", audio_codec=\"aac\")\n",
    "            video_clip.close()\n",
    "        \n",
    "        print(\"Video splitting completed successfully!\")\n",
    "    except Exception as e:\n",
    "        print(f\"An error occurred: {e}\")\n",
    "    finally:\n",
    "        video.close()\n",
    "\n",
    "# Example usage\n",
    "input_video_path = r\"D:/MOVIES/HP1.mkv\"  # Path to your video file\n",
    "output_directory = r\"D:/REEL/HP1\"        # Directory to save the split parts\n",
    "split_video(input_video_path, output_directory)\n"
   ]
  }
 ],
 "metadata": {
  "kernelspec": {
   "display_name": "Python 3",
   "language": "python",
   "name": "python3"
  },
  "language_info": {
   "codemirror_mode": {
    "name": "ipython",
    "version": 3
   },
   "file_extension": ".py",
   "mimetype": "text/x-python",
   "name": "python",
   "nbconvert_exporter": "python",
   "pygments_lexer": "ipython3",
   "version": "3.12.3"
  }
 },
 "nbformat": 4,
 "nbformat_minor": 2
}
